<svg xmlns="http://www.w3.org/2000/svg" viewBox="0 0 48 48" fill="none" stroke="currentColor" stroke-linecap="round" stroke-linejoin="round"><g opacity=".45" stroke-width="2"><line x1="3" y1="44" x2="45" y2="44"/><line x1="12" y1="41.5" x2="16" y2="41.5" stroke-width="1.6"/><line x1="32" y1="41.5" x2="36" y2="41.5" stroke-width="1.6"/><line x1="41" y1="28" x2="41" y2="19" stroke-width="1.6"/><line x1="42.24" y1="20.82" x2="41" y2="19" stroke-width="1.6"/><line x1="39.76" y1="20.82" x2="41" y2="19" stroke-width="1.6"/></g><g stroke-width="3.4"><circle cx="24" cy="10" r="3.2" fill="currentColor" stroke="none"/><line x1="19" y1="16.5" x2="29" y2="16.5"/><line x1="24" y1="16.5" x2="24" y2="28"/><line x1="21" y1="28" x2="27" y2="28"/><polyline points="19,16.5 16,9.5 14,3"/><polyline points="29,16.5 32,9.5 34,3"/><polyline points="21,28 19,34 21,39.5"/><polyline points="27,28 29,34 27,39.5"/></g></svg>
