<svg xmlns="http://www.w3.org/2000/svg" viewBox="0 0 48 48" fill="none" stroke="currentColor" stroke-linecap="round" stroke-linejoin="round"><g opacity=".45" stroke-width="2"><rect x="15" y="4" width="18" height="28" rx="2"/><line x1="8.5" y1="5" x2="8.5" y2="19" stroke-width="4"/><line x1="39.5" y1="5" x2="39.5" y2="19" stroke-width="4"/><line x1="8.5" y1="5" x2="15" y2="4"/><line x1="39.5" y1="5" x2="33" y2="4"/><line x1="15" y1="32" x2="33" y2="32" stroke-width="3.6"/><line x1="24" y1="32" x2="24" y2="42"/><line x1="3" y1="42.5" x2="45" y2="42.5"/></g><g stroke-width="3.4"><circle cx="24" cy="10" r="3.2" fill="currentColor" stroke="none"/><line x1="19" y1="16" x2="29" y2="16"/><line x1="24" y1="16" x2="24" y2="30"/><line x1="21" y1="30" x2="27" y2="30"/><polyline points="19,16 11,16 11,8"/><polyline points="29,16 37,16 37,8"/><polyline points="21,30 18.5,34 18.5,41.5"/><polyline points="27,30 29.5,34 29.5,41.5"/></g></svg>
