<svg xmlns="http://www.w3.org/2000/svg" viewBox="0 0 48 48" fill="none" stroke="currentColor" stroke-linecap="round" stroke-linejoin="round"><g opacity=".45" stroke-width="2"><line x1="5" y1="5" x2="43" y2="5" stroke-width="2.4"/><line x1="6" y1="5" x2="6" y2="42"/><line x1="42" y1="5" x2="42" y2="42"/><line x1="14" y1="37" x2="34" y2="37" stroke-width="3.6"/><line x1="24" y1="37" x2="24" y2="42"/><line x1="3" y1="42.5" x2="45" y2="42.5"/><line x1="39" y1="40" x2="39" y2="32" stroke-width="1.6"/><line x1="40.24" y1="33.82" x2="39" y2="32" stroke-width="1.6"/><line x1="37.76" y1="33.82" x2="39" y2="32" stroke-width="1.6"/></g><g stroke-width="3.4"><circle cx="24" cy="11" r="3.2" fill="currentColor" stroke="none"/><line x1="19" y1="17" x2="29" y2="17"/><line x1="24" y1="17" x2="24" y2="29"/><line x1="21" y1="29" x2="27" y2="29"/><polyline points="19,17 12.5,13 15,5"/><polyline points="29,17 35.5,13 33,5"/><line x1="21" y1="29" x2="20.5" y2="35"/><line x1="27" y1="29" x2="27.5" y2="35"/></g></svg>
