<svg xmlns="http://www.w3.org/2000/svg" viewBox="0 0 48 48" fill="none" stroke="currentColor" stroke-linecap="round" stroke-linejoin="round"><g opacity=".45" stroke-width="2"><line x1="3" y1="42.5" x2="45" y2="42.5"/><path d="M7 27 Q4 23 5 20" stroke-width="1.6"/><path d="M41 27 Q44 23 43 20" stroke-width="1.6"/></g><g stroke-width="2.2"><line x1="4" y1="13.5" x2="4" y2="19.5"/><line x1="2.2" y1="13.5" x2="5.8" y2="13.5" stroke-width="2.6"/><line x1="2.2" y1="19.5" x2="5.8" y2="19.5" stroke-width="2.6"/><line x1="44" y1="13.5" x2="44" y2="19.5"/><line x1="42.2" y1="13.5" x2="45.8" y2="13.5" stroke-width="2.6"/><line x1="42.2" y1="19.5" x2="45.8" y2="19.5" stroke-width="2.6"/></g><g stroke-width="3.4"><circle cx="24" cy="7" r="3.2" fill="currentColor" stroke="none"/><line x1="19" y1="13.5" x2="29" y2="13.5"/><line x1="24" y1="13.5" x2="24" y2="26"/><line x1="21" y1="26" x2="27" y2="26"/><polyline points="19,13.5 12,15 5.5,16.5"/><polyline points="29,13.5 36,15 42.5,16.5"/><line x1="21" y1="26" x2="20" y2="41.5"/><line x1="27" y1="26" x2="28" y2="41.5"/></g></svg>
