<svg xmlns="http://www.w3.org/2000/svg" viewBox="0 0 48 48" fill="none" stroke="currentColor" stroke-linecap="round" stroke-linejoin="round"><g opacity=".45" stroke-width="2"><rect x="2" y="8" width="6" height="34" rx="1.2"/><line x1="3.2" y1="23.3" x2="6.8" y2="23.3" stroke-width="1.2"/><line x1="3.2" y1="27.04" x2="6.8" y2="27.04" stroke-width="1.2"/><line x1="3.2" y1="30.78" x2="6.8" y2="30.78" stroke-width="1.2"/><line x1="3.2" y1="34.52" x2="6.8" y2="34.52" stroke-width="1.2"/><line x1="3.2" y1="38.26" x2="6.8" y2="38.26" stroke-width="1.2"/><line x1="13" y1="11" x2="13" y2="30" stroke-width="3.6"/><line x1="12" y1="30.5" x2="26" y2="30.5" stroke-width="3.6"/><line x1="18" y1="30.5" x2="18" y2="42"/><line x1="26" y1="31" x2="34" y2="26" stroke-width="1.8"/><circle cx="35.5" cy="25.5" r="2.3"/><line x1="3" y1="42.5" x2="45" y2="42.5"/></g><g stroke-width="3.4"><circle cx="17" cy="8" r="3.2" fill="currentColor" stroke="none"/><line x1="16.5" y1="13.5" x2="17" y2="27.5"/><polyline points="17,27.5 26,28 35.5,22"/><polyline points="16.5,14.5 21,21 22,27.5"/></g></svg>
